<svg width="15" height="15" viewBox="0 0 15 15" fill="none" xmlns="http://www.w3.org/2000/svg">
<path fill-rule="evenodd" clip-rule="evenodd" d="M13.5 2.25012C13.9142 2.25012 14.25 2.5859 14.25 3.00012V9.75012C14.25 10.1643 13.9142 10.5001 13.5 10.5001H12.75C12.3358 10.5001 12 10.1643 12 9.75012V3.00012C12 2.5859 12.3358 2.25012 12.75 2.25012H13.5ZM1.97727 10.7907C1.30227 10.7907 0.75 10.1995 0.75 9.47682C0.759695 8.4725 0.783758 7.91858 0.822192 7.81504C0.860626 7.71151 1.49111 6.11932 2.71364 3.03848C2.89773 2.5786 4.40981 2.25012 4.90072 2.25012H9.21C9.885 2.25012 10.875 2.84139 10.875 3.56406V10.5001L6.80457 14.7122L6.80226 14.7146C6.44071 15.0861 5.84646 15.0941 5.47498 14.7326C5.35227 14.5355 5.22955 14.2727 5.22955 14.0099C5.22955 13.9442 5.22955 13.8785 5.22955 13.8128L5.84318 10.7907H1.97727Z" fill="#C4C4C4"/>
</svg>
