<svg width="20" height="20" viewBox="0 0 20 20" fill="none" xmlns="http://www.w3.org/2000/svg">
<path fill-rule="evenodd" clip-rule="evenodd" d="M17.1187 3.94694C16.2268 2.94904 15.041 2.3999 13.7794 2.3999C12.5178 2.3999 11.459 2.94904 10.5667 3.94694L9.99997 4.85211L9.43333 3.94694C8.5413 2.94904 7.48219 2.3999 6.22076 2.3999C4.95938 2.3999 3.7731 2.94904 2.88115 3.94694C1.03962 6.00723 1.03962 9.35941 2.88115 11.4189L9.47989 17.7608C9.58778 17.882 9.72209 17.9561 9.86242 17.9847C9.90948 17.9951 9.95681 17.9999 10.0042 17.9999C10.1909 17.9999 10.3779 17.9203 10.5201 17.7608L17.1188 11.4189C18.9604 9.35941 18.9604 6.00723 17.1187 3.94694Z" fill="#BCBFC2"/>
</svg>
