<svg width="15" height="13" viewBox="0 0 15 13" fill="none" xmlns="http://www.w3.org/2000/svg">
<path d="M6.14871 10.9833C6.32367 11.6259 5.93617 12.2865 5.28321 12.4587C4.63025 12.6309 3.95909 12.2495 3.78413 11.6068C3.60917 10.9642 3.99666 10.3036 4.64962 10.1314M6.14871 10.9833C5.97375 10.3406 5.30258 9.95924 4.64962 10.1314M6.14871 10.9833L13.8336 8.95663M4.64962 10.1314L2.59047 2.56797C2.41551 1.92533 1.74435 1.54395 1.09139 1.71615L0.500244 1.87204M7.79481 3.06623L8.9771 2.75444M7.44695 8.77016L12.1761 7.52301C12.8291 7.35081 13.2166 6.69025 13.0416 6.04761L11.7744 1.39317C11.5995 0.750524 10.9283 0.369151 10.2753 0.541347L5.54619 1.7885C4.89323 1.9607 4.50573 2.62125 4.68069 3.2639L5.94787 7.91834C6.12283 8.56098 6.79399 8.94235 7.44695 8.77016Z" stroke="white" stroke-linecap="round" stroke-linejoin="round"/>
</svg>
